<svg width="245" height="29" viewBox="0 0 245 29" fill="none" xmlns="http://www.w3.org/2000/svg">
<path d="M6.755 14.435C7.01167 14.295 7.30333 14.225 7.63 14.225C7.86333 14.225 8.02667 14.2717 8.12 14.365C8.19 14.4583 8.51667 14.575 9.1 14.715C9.49667 14.8083 9.73 14.9017 9.8 14.995C9.89333 15.0883 9.96333 15.2983 10.01 15.625C10.01 15.6483 10.01 15.695 10.01 15.765C10.0333 15.835 10.045 15.8933 10.045 15.94C10.045 16.22 9.85833 16.5117 9.485 16.815C9.15833 17.0483 8.84333 17.165 8.54 17.165C8.16667 17.165 7.95667 16.99 7.91 16.64C7.86333 16.36 7.75833 16.22 7.595 16.22C7.29167 16.22 6.79 16.6517 6.09 17.515C5.11 18.705 4.41 19.6733 3.99 20.42C3.57 21.1433 3.09167 22.2633 2.555 23.78C2.11167 25.0167 1.89 25.775 1.89 26.055C1.89 26.265 2.01833 26.37 2.275 26.37C2.57833 26.37 3.23167 25.845 4.235 24.795C5.285 23.6983 5.99667 22.6483 6.37 21.645C6.74333 20.7117 7.18667 19.9417 7.7 19.335C8.21333 18.7283 8.69167 18.425 9.135 18.425C9.32167 18.425 9.47333 18.4717 9.59 18.565C9.77667 18.6817 10.255 19.3467 11.025 20.56C11.8183 21.75 12.3783 22.6833 12.705 23.36C13.1017 24.2 13.58 24.9 14.14 25.46C14.6533 25.9733 14.91 26.44 14.91 26.86C14.91 27.3733 14.5483 27.63 13.825 27.63C13.4283 27.63 13.0433 27.4433 12.67 27.07C12.4133 26.8133 11.8883 25.95 11.095 24.48C10.325 23.01 9.78833 21.89 9.485 21.12C9.32167 20.77 9.18167 20.595 9.065 20.595C8.925 20.595 8.645 20.98 8.225 21.75C6.31167 25.3667 4.55 27.5483 2.94 28.295C2.66 28.435 2.45 28.505 2.31 28.505C2.12333 28.505 1.87833 28.435 1.575 28.295C0.665 27.945 0.198333 27.1167 0.175 25.81C0.175 25.04 0.431667 24.0133 0.945 22.73C1.45833 21.4467 2.07667 20.2683 2.8 19.195C2.89333 19.055 3.02167 18.8683 3.185 18.635C3.37167 18.3783 3.57 18.0983 3.78 17.795C3.99 17.4683 4.14167 17.235 4.235 17.095C5.16833 15.7417 6.00833 14.855 6.755 14.435ZM5.18 28.505C5.27333 28.2483 5.43667 28.1433 5.67 28.19C5.81 28.2133 5.85667 28.295 5.81 28.435C5.71667 28.5983 5.57667 28.7033 5.39 28.75C5.27333 28.7733 5.19167 28.7733 5.145 28.75C5.12167 28.7033 5.13333 28.6217 5.18 28.505ZM26.3782 14.47C26.6349 14.26 26.8332 14.155 26.9732 14.155C27.1132 14.155 27.2999 14.2717 27.5332 14.505C27.7199 14.6917 27.8132 14.89 27.8132 15.1C27.8132 15.3333 27.7549 15.66 27.6382 16.08C27.2649 17.5967 27.0782 19.2767 27.0782 21.12V21.715C27.1016 22.765 27.1366 23.4417 27.1832 23.745C27.2299 24.0483 27.3582 24.34 27.5682 24.62C27.9416 25.0867 28.3499 25.3667 28.7932 25.46C29.5632 25.67 29.9482 26.0083 29.9482 26.475C29.9482 26.4983 29.9366 26.5333 29.9132 26.58C29.9132 26.6267 29.9132 26.6617 29.9132 26.685C29.8432 27.035 29.5166 27.21 28.9332 27.21C28.4199 27.21 27.9066 27.07 27.3932 26.79C26.9032 26.51 26.4482 26.1017 26.0282 25.565C25.6316 25.0283 25.4216 24.585 25.3982 24.235C25.3982 23.8617 25.3049 23.6167 25.1182 23.5C24.9316 23.36 24.6982 23.5 24.4182 23.92C23.9749 24.6433 23.0766 25.425 21.7232 26.265L20.9532 26.72L20.0782 26.265C19.5182 25.985 19.1216 25.635 18.8882 25.215C18.7249 24.865 18.5499 24.69 18.3632 24.69C18.1766 24.69 17.9782 24.8533 17.7682 25.18C17.5816 25.4367 17.2432 25.705 16.7532 25.985C16.2866 26.265 15.9249 26.405 15.6682 26.405C15.6449 26.405 15.6099 26.3933 15.5632 26.37H15.5282C15.3416 26.3 15.2482 26.0433 15.2482 25.6C15.2482 25.11 15.5282 24.6433 16.0882 24.2C16.7182 23.6633 17.1966 23.0683 17.5232 22.415C17.8266 21.8083 17.9782 21.4233 17.9782 21.26C17.9782 21.12 17.9082 20.91 17.7682 20.63C17.6049 20.28 17.5232 19.825 17.5232 19.265C17.5232 18.8917 17.5349 18.5883 17.5582 18.355C17.5816 18.145 17.5932 17.8417 17.5932 17.445C17.5932 16.7917 17.5466 16.325 17.4532 16.045C17.3599 15.7417 17.3132 15.45 17.3132 15.17C17.3132 14.61 17.5582 14.33 18.0482 14.33C18.6549 14.33 19.1332 14.8783 19.4832 15.975C19.8332 17.0717 20.0082 18.6 20.0082 20.56C20.0082 22.38 20.1249 23.4883 20.3582 23.885C20.5916 24.2583 20.8366 24.445 21.0932 24.445C21.3966 24.445 21.8749 24.1533 22.5282 23.57C23.7882 22.4733 24.6049 21.1783 24.9782 19.685C25.3049 18.355 25.5732 17.13 25.7832 16.01C25.8766 15.2167 26.0749 14.7033 26.3782 14.47ZM41.3831 2.29C41.5698 2.10333 41.7448 2.01 41.9081 2.01C42.2815 2.01 42.6315 2.29 42.9581 2.85C43.2848 3.41 43.4481 3.99333 43.4481 4.6C43.4481 5.04333 43.3431 5.405 43.1331 5.685C43.0165 5.84833 42.8881 6.46667 42.7481 7.54C42.6315 8.61333 42.5498 9.68667 42.5031 10.76L42.4331 12.86L45.4781 12.93C46.8315 12.9767 47.6948 13.035 48.0681 13.105C48.4648 13.1517 48.7215 13.2683 48.8381 13.455C49.0248 13.7117 49.1181 13.8983 49.1181 14.015C49.1181 14.1783 48.9081 14.2833 48.4881 14.33C48.0681 14.3767 47.2165 14.4 45.9331 14.4H45.0931C43.9498 14.4 43.1681 14.4467 42.7481 14.54C42.3515 14.61 42.1531 14.7617 42.1531 14.995C42.1531 15.0183 42.1531 15.0533 42.1531 15.1C42.1765 15.1233 42.1881 15.1467 42.1881 15.17C42.2115 15.2167 42.2231 15.345 42.2231 15.555C42.2231 16.2083 42.1531 17.06 42.0131 18.11C41.8265 19.6033 41.7331 20.7933 41.7331 21.68C41.7331 22.6833 41.8498 23.57 42.0831 24.34C42.2931 25.0633 42.5381 25.425 42.8181 25.425C43.0048 25.425 43.2498 25.2383 43.5531 24.865C43.8798 24.445 44.1715 24.27 44.4281 24.34C44.6381 24.41 44.7431 24.5733 44.7431 24.83C44.7431 25.2267 44.5331 25.67 44.1131 26.16C43.7165 26.6267 43.3081 26.86 42.8881 26.86C42.4915 26.86 42.0831 26.6267 41.6631 26.16C41.2431 25.6933 40.8931 25.0867 40.6131 24.34C40.3331 23.57 40.1931 22.8 40.1931 22.03C40.1931 21.4467 40.2865 20.105 40.4731 18.005C40.5898 16.7217 40.6481 15.8933 40.6481 15.52C40.6481 14.89 40.5198 14.575 40.2631 14.575C40.1931 14.575 40.0648 14.5983 39.8781 14.645C39.5048 14.7617 38.0115 14.8433 35.3981 14.89C34.8381 14.9133 34.1265 14.925 33.2631 14.925C32.0965 14.925 31.3031 14.8783 30.8831 14.785C30.4631 14.6683 30.2531 14.47 30.2531 14.19C30.2531 13.91 30.3465 13.7467 30.5331 13.7C30.7198 13.6533 31.2798 13.6183 32.2131 13.595C32.3765 13.595 32.5048 13.595 32.5981 13.595C34.2315 13.5483 35.9815 13.455 37.8481 13.315C39.7148 13.1517 40.6948 13.0117 40.7881 12.895C40.8348 12.8017 40.8581 11.9383 40.8581 10.305V8.59V7.015C40.8581 4.33167 41.0331 2.75667 41.3831 2.29ZM57.7229 16.57C56.8829 16.1967 56.0196 16.01 55.1329 16.01C54.9229 16.01 54.7713 16.0333 54.6779 16.08C54.5379 16.1733 54.4213 16.3483 54.3279 16.605C54.1646 17.0717 53.7913 17.97 53.2079 19.3C52.1113 21.75 51.5629 23.5 51.5629 24.55C51.5629 24.7367 51.5746 24.865 51.5979 24.935C51.8313 25.5183 52.2629 25.81 52.8929 25.81C53.1729 25.81 53.3946 25.7983 53.5579 25.775C54.7013 25.6583 55.8913 25.2617 57.1279 24.585C58.3646 23.885 59.1813 23.1617 59.5779 22.415C59.8579 21.855 59.9979 21.1783 59.9979 20.385C59.9979 19.1017 59.7063 18.145 59.1229 17.515C58.7496 17.1417 58.2829 16.8267 57.7229 16.57ZM52.3679 13.49C52.3679 13.2333 52.6129 13.105 53.1029 13.105C53.6629 13.105 54.0479 13.2683 54.2579 13.595C54.3746 13.7817 54.5379 13.9217 54.7479 14.015C54.9579 14.085 55.3429 14.1433 55.9029 14.19C56.7896 14.26 57.5713 14.47 58.2479 14.82C58.7613 15.0767 59.3679 15.5433 60.0679 16.22C60.7913 16.8733 61.1529 17.3167 61.1529 17.55C61.1529 17.7133 61.2813 18.0517 61.5379 18.565C61.7946 19.0783 61.9229 19.51 61.9229 19.86C61.9229 20.2333 61.8179 20.84 61.6079 21.68C61.4446 22.4267 61.1763 23.0333 60.8029 23.5C60.4529 23.9433 59.7179 24.655 58.5979 25.635C57.6646 26.4283 56.8246 26.9767 56.0779 27.28C55.3313 27.56 54.4329 27.7 53.3829 27.7C52.5429 27.7 51.9946 27.6767 51.7379 27.63C51.4813 27.56 51.1546 27.3733 50.7579 27.07C50.1513 26.65 49.7779 26.23 49.6379 25.81C49.4979 25.4367 49.4279 25.0167 49.4279 24.55C49.4279 23.1967 50.1046 21.1317 51.4579 18.355C51.8079 17.6317 51.9829 17.2117 51.9829 17.095C51.9829 16.9783 51.9013 16.78 51.7379 16.5C51.5279 16.15 51.4229 15.8817 51.4229 15.695C51.4229 15.5083 51.5863 15.2517 51.9129 14.925C52.2629 14.6217 52.4146 14.365 52.3679 14.155C52.3213 13.945 52.3213 13.7233 52.3679 13.49ZM73.4095 14.47C73.6662 14.26 73.8645 14.155 74.0045 14.155C74.1445 14.155 74.3312 14.2717 74.5645 14.505C74.7512 14.6917 74.8445 14.89 74.8445 15.1C74.8445 15.3333 74.7862 15.66 74.6695 16.08C74.2962 17.5967 74.1095 19.2767 74.1095 21.12V21.715C74.1328 22.765 74.1678 23.4417 74.2145 23.745C74.2612 24.0483 74.3895 24.34 74.5995 24.62C74.9728 25.0867 75.3812 25.3667 75.8245 25.46C76.5945 25.67 76.9795 26.0083 76.9795 26.475C76.9795 26.4983 76.9678 26.5333 76.9445 26.58C76.9445 26.6267 76.9445 26.6617 76.9445 26.685C76.8745 27.035 76.5478 27.21 75.9645 27.21C75.4512 27.21 74.9378 27.07 74.4245 26.79C73.9345 26.51 73.4795 26.1017 73.0595 25.565C72.6628 25.0283 72.4528 24.585 72.4295 24.235C72.4295 23.8617 72.3362 23.6167 72.1495 23.5C71.9628 23.36 71.7295 23.5 71.4495 23.92C71.0062 24.6433 70.1078 25.425 68.7545 26.265L67.9845 26.72L67.1095 26.265C66.5495 25.985 66.1528 25.635 65.9195 25.215C65.7562 24.865 65.5812 24.69 65.3945 24.69C65.2078 24.69 65.0095 24.8533 64.7995 25.18C64.6128 25.4367 64.2745 25.705 63.7845 25.985C63.3178 26.265 62.9562 26.405 62.6995 26.405C62.6762 26.405 62.6412 26.3933 62.5945 26.37H62.5595C62.3728 26.3 62.2795 26.0433 62.2795 25.6C62.2795 25.11 62.5595 24.6433 63.1195 24.2C63.7495 23.6633 64.2278 23.0683 64.5545 22.415C64.8578 21.8083 65.0095 21.4233 65.0095 21.26C65.0095 21.12 64.9395 20.91 64.7995 20.63C64.6362 20.28 64.5545 19.825 64.5545 19.265C64.5545 18.8917 64.5662 18.5883 64.5895 18.355C64.6128 18.145 64.6245 17.8417 64.6245 17.445C64.6245 16.7917 64.5778 16.325 64.4845 16.045C64.3912 15.7417 64.3445 15.45 64.3445 15.17C64.3445 14.61 64.5895 14.33 65.0795 14.33C65.6862 14.33 66.1645 14.8783 66.5145 15.975C66.8645 17.0717 67.0395 18.6 67.0395 20.56C67.0395 22.38 67.1562 23.4883 67.3895 23.885C67.6228 24.2583 67.8678 24.445 68.1245 24.445C68.4278 24.445 68.9062 24.1533 69.5595 23.57C70.8195 22.4733 71.6362 21.1783 72.0095 19.685C72.3362 18.355 72.6045 17.13 72.8145 16.01C72.9078 15.2167 73.1062 14.7033 73.4095 14.47ZM77.7744 3.165C78.101 2.83833 78.3694 2.675 78.5794 2.675C78.766 2.675 78.9527 2.78 79.1394 2.99C79.3727 3.24667 79.6177 3.66667 79.8744 4.25C80.1544 4.81 80.2944 5.20667 80.2944 5.44C80.2944 5.69667 80.096 5.825 79.6994 5.825C79.256 5.825 78.7894 5.69667 78.2994 5.44C77.6227 5.09 77.2844 4.68167 77.2844 4.215C77.2844 3.88833 77.4477 3.53833 77.7744 3.165ZM80.6444 15.625C80.8777 15.5083 81.0644 15.45 81.2044 15.45C81.811 15.45 82.1844 16.0567 82.3244 17.27C82.371 17.7367 82.3944 18.005 82.3944 18.075C82.3944 18.355 82.2544 18.635 81.9744 18.915C81.6244 19.265 81.4844 19.5333 81.5544 19.72C81.6477 19.9533 81.6944 20.9217 81.6944 22.625C81.6944 24.3283 81.7877 25.18 81.9744 25.18C82.1844 25.18 82.3477 25.04 82.4644 24.76C82.721 24.34 83.071 24.13 83.5144 24.13C83.631 24.13 83.736 24.165 83.8294 24.235C83.9694 24.375 84.0394 24.6083 84.0394 24.935C84.0394 25.4017 83.9227 25.915 83.6894 26.475C83.456 27.035 83.176 27.4317 82.8494 27.665C82.5694 27.875 82.3244 27.98 82.1144 27.98C81.8577 27.98 81.4844 27.7583 80.9944 27.315C80.0144 26.405 79.5244 24.8883 79.5244 22.765C79.5244 22.0417 79.5827 20.9567 79.6994 19.51C79.886 17.2 80.201 15.905 80.6444 15.625ZM92.7229 16.57C91.8829 16.1967 91.0196 16.01 90.1329 16.01C89.9229 16.01 89.7713 16.0333 89.6779 16.08C89.5379 16.1733 89.4213 16.3483 89.3279 16.605C89.1646 17.0717 88.7913 17.97 88.2079 19.3C87.1113 21.75 86.5629 23.5 86.5629 24.55C86.5629 24.7367 86.5746 24.865 86.5979 24.935C86.8313 25.5183 87.2629 25.81 87.8929 25.81C88.1729 25.81 88.3946 25.7983 88.5579 25.775C89.7013 25.6583 90.8913 25.2617 92.1279 24.585C93.3646 23.885 94.1813 23.1617 94.5779 22.415C94.8579 21.855 94.9979 21.1783 94.9979 20.385C94.9979 19.1017 94.7063 18.145 94.1229 17.515C93.7496 17.1417 93.2829 16.8267 92.7229 16.57ZM87.3679 13.49C87.3679 13.2333 87.6129 13.105 88.1029 13.105C88.6629 13.105 89.0479 13.2683 89.2579 13.595C89.3746 13.7817 89.5379 13.9217 89.7479 14.015C89.9579 14.085 90.3429 14.1433 90.9029 14.19C91.7896 14.26 92.5713 14.47 93.2479 14.82C93.7613 15.0767 94.3679 15.5433 95.0679 16.22C95.7913 16.8733 96.1529 17.3167 96.1529 17.55C96.1529 17.7133 96.2813 18.0517 96.5379 18.565C96.7946 19.0783 96.9229 19.51 96.9229 19.86C96.9229 20.2333 96.8179 20.84 96.6079 21.68C96.4446 22.4267 96.1763 23.0333 95.8029 23.5C95.4529 23.9433 94.7179 24.655 93.5979 25.635C92.6646 26.4283 91.8246 26.9767 91.0779 27.28C90.3313 27.56 89.4329 27.7 88.3829 27.7C87.5429 27.7 86.9946 27.6767 86.7379 27.63C86.4813 27.56 86.1546 27.3733 85.7579 27.07C85.1513 26.65 84.7779 26.23 84.6379 25.81C84.4979 25.4367 84.4279 25.0167 84.4279 24.55C84.4279 23.1967 85.1046 21.1317 86.4579 18.355C86.8079 17.6317 86.9829 17.2117 86.9829 17.095C86.9829 16.9783 86.9013 16.78 86.7379 16.5C86.5279 16.15 86.4229 15.8817 86.4229 15.695C86.4229 15.5083 86.5863 15.2517 86.9129 14.925C87.2629 14.6217 87.4146 14.365 87.3679 14.155C87.3213 13.945 87.3213 13.7233 87.3679 13.49ZM110.264 16.64C109.961 15.7533 109.739 15.2867 109.599 15.24H109.564C109.448 15.24 109.319 15.4033 109.179 15.73C109.039 16.0333 108.969 16.325 108.969 16.605C108.969 16.9317 108.876 17.375 108.689 17.935C108.083 19.965 107.768 21.3533 107.744 22.1V22.38C107.744 23.0567 107.791 23.6983 107.884 24.305C108.001 24.8883 108.129 25.18 108.269 25.18C108.386 25.18 108.736 24.83 109.319 24.13C109.926 23.4067 110.346 22.835 110.579 22.415C110.883 21.8317 111.034 21.155 111.034 20.385C111.034 19.335 110.778 18.0867 110.264 16.64ZM108.339 14.26C108.526 13.91 108.689 13.6883 108.829 13.595C108.969 13.4783 109.156 13.42 109.389 13.42C109.763 13.42 110.124 13.6533 110.474 14.12C110.824 14.5867 111.233 15.3917 111.699 16.535C112.189 17.725 112.446 18.915 112.469 20.105V20.7C112.469 21.26 112.423 21.6683 112.329 21.925C112.259 22.1817 112.084 22.5667 111.804 23.08C111.244 24.0367 110.789 24.725 110.439 25.145C110.066 25.5883 109.879 25.915 109.879 26.125C109.879 26.265 110.089 26.335 110.509 26.335C111.793 26.335 113.403 25.88 115.339 24.97C116.273 24.5033 116.903 24.27 117.229 24.27H117.299C117.439 24.34 117.509 24.4217 117.509 24.515C117.509 25.0283 116.284 25.8567 113.834 27C112.644 27.56 111.723 27.84 111.069 27.84H110.789C108.923 27.7933 107.663 27.7467 107.009 27.7C106.356 27.63 106.029 27.5133 106.029 27.35C106.029 27.2567 106.193 27.07 106.519 26.79L107.044 26.37L106.659 25.215C106.449 24.4917 106.344 23.745 106.344 22.975V22.695C106.368 21.8083 106.624 20.3267 107.114 18.25C107.604 16.1733 108.013 14.8433 108.339 14.26ZM127.376 24.025C127.376 23.7917 127.329 23.675 127.236 23.675C127.119 23.675 126.956 23.8617 126.746 24.235C126.629 24.4217 126.547 24.5617 126.501 24.655C126.454 24.7483 126.419 24.83 126.396 24.9C126.396 24.97 126.407 25.0167 126.431 25.04C126.477 25.0633 126.536 25.075 126.606 25.075C126.769 25.075 126.932 24.9583 127.096 24.725C127.259 24.4683 127.352 24.235 127.376 24.025ZM119.816 12.895C120.516 12.405 121.099 12.16 121.566 12.16C122.056 12.16 122.767 12.4517 123.701 13.035C124.727 13.7117 125.427 14.2133 125.801 14.54C126.174 14.8667 126.361 15.1933 126.361 15.52C126.361 15.8 126.244 16.1267 126.011 16.5C125.777 16.8967 125.521 17.095 125.241 17.095H125.136C124.856 17.0717 124.727 16.85 124.751 16.43V16.22C124.751 15.87 124.657 15.59 124.471 15.38C124.284 15.17 123.934 14.925 123.421 14.645C122.814 14.365 122.452 14.1317 122.336 13.945C122.242 13.805 121.951 13.735 121.461 13.735C120.924 13.735 120.457 13.9567 120.061 14.4C119.687 14.8433 119.501 15.3567 119.501 15.94C119.501 16.2667 119.571 16.5817 119.711 16.885C119.897 17.2117 120.294 17.6317 120.901 18.145C121.507 18.635 121.927 18.8917 122.161 18.915C122.277 18.915 122.522 18.985 122.896 19.125C123.269 19.265 123.642 19.4283 124.016 19.615C124.412 19.7783 124.646 19.8717 124.716 19.895C124.762 19.9183 124.972 20.0233 125.346 20.21C125.742 20.3733 126.116 20.5367 126.466 20.7C126.839 20.84 127.072 20.91 127.166 20.91C127.259 20.91 127.726 20.49 128.566 19.65C129.266 18.95 129.697 18.6 129.861 18.6C129.954 18.6 130.036 18.67 130.106 18.81C130.269 19.0667 130.351 19.2183 130.351 19.265C130.351 19.405 130.059 19.8367 129.476 20.56C128.916 21.26 128.636 21.7733 128.636 22.1C128.636 22.31 128.717 22.5317 128.881 22.765C129.067 22.975 129.161 23.255 129.161 23.605C129.161 24.305 128.706 25.075 127.796 25.915C126.886 26.755 126.151 27.175 125.591 27.175C125.474 27.175 125.381 27.1633 125.311 27.14C125.031 27.07 124.774 26.9067 124.541 26.65C124.331 26.37 124.226 26.0783 124.226 25.775C124.226 25.565 124.517 25.0283 125.101 24.165C125.684 23.3017 126.057 22.87 126.221 22.87C126.454 22.87 126.501 22.73 126.361 22.45C126.291 22.31 126.186 22.2167 126.046 22.17C124.016 21.4933 122.394 20.8517 121.181 20.245C120.247 19.7783 119.454 19.1367 118.801 18.32C118.171 17.48 117.856 16.6867 117.856 15.94C117.856 14.82 118.509 13.805 119.816 12.895ZM134.698 13.21C135.188 12.9767 135.631 12.86 136.028 12.86C136.378 12.86 136.67 12.965 136.903 13.175C137.37 13.525 137.603 13.8633 137.603 14.19C137.603 14.5167 137.346 15.1933 136.833 16.22C136.436 17.0133 136.145 17.5267 135.958 17.76C135.795 17.9933 135.596 18.1333 135.363 18.18C135.13 18.2033 134.978 18.1917 134.908 18.145C134.838 18.0983 134.803 17.97 134.803 17.76C134.803 17.4567 135.001 16.9783 135.398 16.325C135.795 15.6017 135.993 15.0883 135.993 14.785C135.993 14.5517 135.888 14.435 135.678 14.435C135.351 14.435 134.908 14.7033 134.348 15.24C133.951 15.6133 133.671 15.9517 133.508 16.255C133.345 16.5583 133.146 17.0717 132.913 17.795C132.446 19.265 132.213 20.595 132.213 21.785C132.213 22.275 132.248 22.835 132.318 23.465C132.411 24.515 132.598 25.2617 132.878 25.705C133.158 26.1483 133.59 26.37 134.173 26.37C134.523 26.37 134.955 26.3 135.468 26.16C136.215 25.9733 136.903 25.5067 137.533 24.76C138.186 23.99 138.595 23.1733 138.758 22.31C138.851 21.82 138.968 21.575 139.108 21.575C139.271 21.6217 139.353 22.1583 139.353 23.185C139.353 23.9317 139.295 24.3633 139.178 24.48C139.061 24.5967 139.003 24.795 139.003 25.075C138.98 25.7517 138.408 26.4283 137.288 27.105C136.191 27.7817 135.153 28.12 134.173 28.12C133.893 28.12 133.648 28.085 133.438 28.015C133.018 27.8983 132.586 27.6417 132.143 27.245C131.7 26.825 131.338 26.3817 131.058 25.915C130.801 25.4483 130.673 24.3167 130.673 22.52C130.673 20.56 130.813 19.1833 131.093 18.39C132.026 15.59 133.228 13.8633 134.698 13.21ZM137.218 20.525C137.335 20.0583 137.463 19.825 137.603 19.825C137.72 19.825 137.778 19.9883 137.778 20.315C137.778 20.7117 137.708 21.1783 137.568 21.715C137.428 22.2283 137.311 22.485 137.218 22.485H137.183C137.066 22.415 137.008 22.205 137.008 21.855C137.008 21.4583 137.078 21.015 137.218 20.525ZM147.991 16.57C147.151 16.1967 146.288 16.01 145.401 16.01C145.191 16.01 145.04 16.0333 144.946 16.08C144.806 16.1733 144.69 16.3483 144.596 16.605C144.433 17.0717 144.06 17.97 143.476 19.3C142.38 21.75 141.831 23.5 141.831 24.55C141.831 24.7367 141.843 24.865 141.866 24.935C142.1 25.5183 142.531 25.81 143.161 25.81C143.441 25.81 143.663 25.7983 143.826 25.775C144.97 25.6583 146.16 25.2617 147.396 24.585C148.633 23.885 149.45 23.1617 149.846 22.415C150.126 21.855 150.266 21.1783 150.266 20.385C150.266 19.1017 149.975 18.145 149.391 17.515C149.018 17.1417 148.551 16.8267 147.991 16.57ZM142.636 13.49C142.636 13.2333 142.881 13.105 143.371 13.105C143.931 13.105 144.316 13.2683 144.526 13.595C144.643 13.7817 144.806 13.9217 145.016 14.015C145.226 14.085 145.611 14.1433 146.171 14.19C147.058 14.26 147.84 14.47 148.516 14.82C149.03 15.0767 149.636 15.5433 150.336 16.22C151.06 16.8733 151.421 17.3167 151.421 17.55C151.421 17.7133 151.55 18.0517 151.806 18.565C152.063 19.0783 152.191 19.51 152.191 19.86C152.191 20.2333 152.086 20.84 151.876 21.68C151.713 22.4267 151.445 23.0333 151.071 23.5C150.721 23.9433 149.986 24.655 148.866 25.635C147.933 26.4283 147.093 26.9767 146.346 27.28C145.6 27.56 144.701 27.7 143.651 27.7C142.811 27.7 142.263 27.6767 142.006 27.63C141.75 27.56 141.423 27.3733 141.026 27.07C140.42 26.65 140.046 26.23 139.906 25.81C139.766 25.4367 139.696 25.0167 139.696 24.55C139.696 23.1967 140.373 21.1317 141.726 18.355C142.076 17.6317 142.251 17.2117 142.251 17.095C142.251 16.9783 142.17 16.78 142.006 16.5C141.796 16.15 141.691 15.8817 141.691 15.695C141.691 15.5083 141.855 15.2517 142.181 14.925C142.531 14.6217 142.683 14.365 142.636 14.155C142.59 13.945 142.59 13.7233 142.636 13.49ZM154.683 1.835C154.683 1.695 154.741 1.625 154.858 1.625C154.975 1.625 155.115 1.73 155.278 1.94C155.441 2.15 155.488 2.30167 155.418 2.395C155.325 2.465 155.173 2.41833 154.963 2.255C154.776 2.09167 154.683 1.95167 154.683 1.835ZM153.248 2.85C153.505 2.85 153.68 2.89667 153.773 2.99C153.89 3.08333 154.03 3.31666 154.193 3.69C154.356 4.06333 154.45 4.72833 154.473 5.685C154.496 6.64167 154.52 9.185 154.543 13.315C154.566 18.5183 154.648 21.4817 154.788 22.205C154.881 22.7183 155.185 23.3133 155.698 23.99C155.745 24.0367 155.78 24.0833 155.803 24.13C156.013 24.4333 156.188 24.62 156.328 24.69C156.491 24.76 156.771 24.795 157.168 24.795C157.565 24.795 157.856 24.7483 158.043 24.655C158.23 24.5383 158.521 24.2933 158.918 23.92L159.793 23.08L159.828 20.315C159.851 17.7483 160.295 15.45 161.158 13.42C161.438 12.6967 161.765 12.265 162.138 12.125C162.325 12.0783 162.453 12.055 162.523 12.055C162.826 12.055 162.978 12.265 162.978 12.685C162.978 12.8483 162.966 12.9883 162.943 13.105C162.896 13.2917 162.803 14.295 162.663 16.115C162.476 18.2383 162.231 20.1867 161.928 21.96L161.578 23.815L162.173 24.305C162.686 24.725 163.2 24.935 163.713 24.935C164.04 24.935 164.635 24.8183 165.498 24.585C166.291 24.3517 166.781 24.235 166.968 24.235C167.085 24.235 167.178 24.2817 167.248 24.375C167.388 24.6083 167.458 24.795 167.458 24.935C167.458 25.2383 166.956 25.6 165.953 26.02C164.973 26.44 164.156 26.65 163.503 26.65C163.363 26.65 163.223 26.6267 163.083 26.58C161.87 26.1133 161.263 25.775 161.263 25.565C161.263 25.4717 161.1 25.3083 160.773 25.075C160.633 24.9583 160.493 24.9 160.353 24.9C160.166 24.9 159.84 25.0867 159.373 25.46C158.533 26.1367 157.798 26.475 157.168 26.475C156.865 26.475 156.608 26.4283 156.398 26.335C155.348 25.8917 154.473 24.935 153.773 23.465C153.446 22.8117 153.248 22.0067 153.178 21.05C153.131 20.07 153.073 16.9317 153.003 11.635C152.956 8.78833 152.851 6.58333 152.688 5.02C152.595 4.04 152.548 3.445 152.548 3.235C152.548 2.97833 152.781 2.85 153.248 2.85ZM176.087 16.57C175.247 16.1967 174.384 16.01 173.497 16.01C173.287 16.01 173.136 16.0333 173.042 16.08C172.902 16.1733 172.786 16.3483 172.692 16.605C172.529 17.0717 172.156 17.97 171.572 19.3C170.476 21.75 169.927 23.5 169.927 24.55C169.927 24.7367 169.939 24.865 169.962 24.935C170.196 25.5183 170.627 25.81 171.257 25.81C171.537 25.81 171.759 25.7983 171.922 25.775C173.066 25.6583 174.256 25.2617 175.492 24.585C176.729 23.885 177.546 23.1617 177.942 22.415C178.222 21.855 178.362 21.1783 178.362 20.385C178.362 19.1017 178.071 18.145 177.487 17.515C177.114 17.1417 176.647 16.8267 176.087 16.57ZM170.732 13.49C170.732 13.2333 170.977 13.105 171.467 13.105C172.027 13.105 172.412 13.2683 172.622 13.595C172.739 13.7817 172.902 13.9217 173.112 14.015C173.322 14.085 173.707 14.1433 174.267 14.19C175.154 14.26 175.936 14.47 176.612 14.82C177.126 15.0767 177.732 15.5433 178.432 16.22C179.156 16.8733 179.517 17.3167 179.517 17.55C179.517 17.7133 179.646 18.0517 179.902 18.565C180.159 19.0783 180.287 19.51 180.287 19.86C180.287 20.2333 180.182 20.84 179.972 21.68C179.809 22.4267 179.541 23.0333 179.167 23.5C178.817 23.9433 178.082 24.655 176.962 25.635C176.029 26.4283 175.189 26.9767 174.442 27.28C173.696 27.56 172.797 27.7 171.747 27.7C170.907 27.7 170.359 27.6767 170.102 27.63C169.846 27.56 169.519 27.3733 169.122 27.07C168.516 26.65 168.142 26.23 168.002 25.81C167.862 25.4367 167.792 25.0167 167.792 24.55C167.792 23.1967 168.469 21.1317 169.822 18.355C170.172 17.6317 170.347 17.2117 170.347 17.095C170.347 16.9783 170.266 16.78 170.102 16.5C169.892 16.15 169.787 15.8817 169.787 15.695C169.787 15.5083 169.951 15.2517 170.277 14.925C170.627 14.6217 170.779 14.365 170.732 14.155C170.686 13.945 170.686 13.7233 170.732 13.49ZM191.774 2.29C191.96 2.10333 192.135 2.01 192.299 2.01C192.672 2.01 193.022 2.29 193.349 2.85C193.675 3.41 193.839 3.99333 193.839 4.6C193.839 5.04333 193.734 5.405 193.524 5.685C193.407 5.84833 193.279 6.46667 193.139 7.54C193.022 8.61333 192.94 9.68667 192.894 10.76L192.824 12.86L195.869 12.93C197.222 12.9767 198.085 13.035 198.459 13.105C198.855 13.1517 199.112 13.2683 199.229 13.455C199.415 13.7117 199.509 13.8983 199.509 14.015C199.509 14.1783 199.299 14.2833 198.879 14.33C198.459 14.3767 197.607 14.4 196.324 14.4H195.484C194.34 14.4 193.559 14.4467 193.139 14.54C192.742 14.61 192.544 14.7617 192.544 14.995C192.544 15.0183 192.544 15.0533 192.544 15.1C192.567 15.1233 192.579 15.1467 192.579 15.17C192.602 15.2167 192.614 15.345 192.614 15.555C192.614 16.2083 192.544 17.06 192.404 18.11C192.217 19.6033 192.124 20.7933 192.124 21.68C192.124 22.6833 192.24 23.57 192.474 24.34C192.684 25.0633 192.929 25.425 193.209 25.425C193.395 25.425 193.64 25.2383 193.944 24.865C194.27 24.445 194.562 24.27 194.819 24.34C195.029 24.41 195.134 24.5733 195.134 24.83C195.134 25.2267 194.924 25.67 194.504 26.16C194.107 26.6267 193.699 26.86 193.279 26.86C192.882 26.86 192.474 26.6267 192.054 26.16C191.634 25.6933 191.284 25.0867 191.004 24.34C190.724 23.57 190.584 22.8 190.584 22.03C190.584 21.4467 190.677 20.105 190.864 18.005C190.98 16.7217 191.039 15.8933 191.039 15.52C191.039 14.89 190.91 14.575 190.654 14.575C190.584 14.575 190.455 14.5983 190.269 14.645C189.895 14.7617 188.402 14.8433 185.789 14.89C185.229 14.9133 184.517 14.925 183.654 14.925C182.487 14.925 181.694 14.8783 181.274 14.785C180.854 14.6683 180.644 14.47 180.644 14.19C180.644 13.91 180.737 13.7467 180.924 13.7C181.11 13.6533 181.67 13.6183 182.604 13.595C182.767 13.595 182.895 13.595 182.989 13.595C184.622 13.5483 186.372 13.455 188.239 13.315C190.105 13.1517 191.085 13.0117 191.179 12.895C191.225 12.8017 191.249 11.9383 191.249 10.305V8.59V7.015C191.249 4.33167 191.424 2.75667 191.774 2.29ZM206.399 14.435C206.655 14.295 206.947 14.225 207.274 14.225C207.507 14.225 207.67 14.2717 207.764 14.365C207.834 14.4583 208.16 14.575 208.744 14.715C209.14 14.8083 209.374 14.9017 209.444 14.995C209.537 15.0883 209.607 15.2983 209.654 15.625C209.654 15.6483 209.654 15.695 209.654 15.765C209.677 15.835 209.689 15.8933 209.689 15.94C209.689 16.22 209.502 16.5117 209.129 16.815C208.802 17.0483 208.487 17.165 208.184 17.165C207.81 17.165 207.6 16.99 207.554 16.64C207.507 16.36 207.402 16.22 207.239 16.22C206.935 16.22 206.434 16.6517 205.734 17.515C204.754 18.705 204.054 19.6733 203.634 20.42C203.214 21.1433 202.735 22.2633 202.199 23.78C201.755 25.0167 201.534 25.775 201.534 26.055C201.534 26.265 201.662 26.37 201.919 26.37C202.222 26.37 202.875 25.845 203.879 24.795C204.929 23.6983 205.64 22.6483 206.014 21.645C206.387 20.7117 206.83 19.9417 207.344 19.335C207.857 18.7283 208.335 18.425 208.779 18.425C208.965 18.425 209.117 18.4717 209.234 18.565C209.42 18.6817 209.899 19.3467 210.669 20.56C211.462 21.75 212.022 22.6833 212.349 23.36C212.745 24.2 213.224 24.9 213.784 25.46C214.297 25.9733 214.554 26.44 214.554 26.86C214.554 27.3733 214.192 27.63 213.469 27.63C213.072 27.63 212.687 27.4433 212.314 27.07C212.057 26.8133 211.532 25.95 210.739 24.48C209.969 23.01 209.432 21.89 209.129 21.12C208.965 20.77 208.825 20.595 208.709 20.595C208.569 20.595 208.289 20.98 207.869 21.75C205.955 25.3667 204.194 27.5483 202.584 28.295C202.304 28.435 202.094 28.505 201.954 28.505C201.767 28.505 201.522 28.435 201.219 28.295C200.309 27.945 199.842 27.1167 199.819 25.81C199.819 25.04 200.075 24.0133 200.589 22.73C201.102 21.4467 201.72 20.2683 202.444 19.195C202.537 19.055 202.665 18.8683 202.829 18.635C203.015 18.3783 203.214 18.0983 203.424 17.795C203.634 17.4683 203.785 17.235 203.879 17.095C204.812 15.7417 205.652 14.855 206.399 14.435ZM204.824 28.505C204.917 28.2483 205.08 28.1433 205.314 28.19C205.454 28.2133 205.5 28.295 205.454 28.435C205.36 28.5983 205.22 28.7033 205.034 28.75C204.917 28.7733 204.835 28.7733 204.789 28.75C204.765 28.7033 204.777 28.6217 204.824 28.505ZM221.052 18.88C221.075 18.74 221.087 18.5533 221.087 18.32C221.087 17.83 221.04 17.5617 220.947 17.515L220.912 17.48H220.877C220.457 17.48 219.873 18.1917 219.127 19.615C217.47 22.7183 216.642 24.55 216.642 25.11C216.642 25.3667 216.758 25.5183 216.992 25.565H217.027C217.237 25.565 217.575 25.355 218.042 24.935C218.532 24.4917 218.882 24.0833 219.092 23.71C219.325 23.2667 219.582 22.9517 219.862 22.765C220.118 22.555 220.363 22.0767 220.597 21.33C220.83 20.56 220.982 19.7433 221.052 18.88ZM222.942 1.135C223.105 0.948331 223.292 0.854998 223.502 0.854998C223.758 0.854998 224.003 0.983332 224.237 1.24C224.727 1.77667 224.983 4.74 225.007 10.13L225.042 15.1L225.987 15.205C226.5 15.2517 226.885 15.3683 227.142 15.555C227.398 15.7183 227.643 16.01 227.877 16.43C228.063 16.85 228.157 17.1883 228.157 17.445C228.157 17.7717 228.028 17.9933 227.772 18.11H227.632C227.398 18.11 227.048 17.8767 226.582 17.41C225.928 16.7567 225.38 16.43 224.937 16.43C224.727 16.43 224.552 16.5233 224.412 16.71C224.248 16.9667 224.167 17.1883 224.167 17.375C224.167 17.5617 223.933 18.0633 223.467 18.88C222.907 19.9067 222.627 20.8517 222.627 21.715C222.627 22.905 223.093 23.8267 224.027 24.48C224.633 24.8767 225.263 25.075 225.917 25.075H226.337C228.087 25.0283 229.592 24.5967 230.852 23.78C231.458 23.3833 231.82 23.185 231.937 23.185C232.077 23.185 232.147 23.4067 232.147 23.85C232.147 24.76 231.213 25.6 229.347 26.37C228.297 26.79 227.258 27 226.232 27C225.065 27 224.05 26.755 223.187 26.265C222.347 25.775 221.81 25.0983 221.577 24.235C221.483 23.8617 221.343 23.675 221.157 23.675C220.947 23.675 220.725 23.9317 220.492 24.445C220.118 25.2383 219.547 25.9617 218.777 26.615C218.007 27.2683 217.342 27.595 216.782 27.595C216.478 27.595 216.093 27.3617 215.627 26.895C215.277 26.5917 215.067 26.3467 214.997 26.16C214.927 25.9733 214.892 25.6117 214.892 25.075V24.83C214.892 24.1767 215.242 23.2667 215.942 22.1C216.618 20.91 216.957 20.245 216.957 20.105C216.957 19.6617 217.423 18.88 218.357 17.76C219.313 16.6167 220.107 15.8817 220.737 15.555C221.11 15.3683 221.332 15.1817 221.402 14.995C221.472 14.8083 221.577 14.1433 221.717 13C221.833 11.95 222.008 11.0283 222.242 10.235C222.475 9.48833 222.603 7.84333 222.627 5.3C222.65 2.73333 222.755 1.345 222.942 1.135ZM240.789 16.57C239.949 16.1967 239.086 16.01 238.199 16.01C237.989 16.01 237.838 16.0333 237.744 16.08C237.604 16.1733 237.488 16.3483 237.394 16.605C237.231 17.0717 236.858 17.97 236.274 19.3C235.178 21.75 234.629 23.5 234.629 24.55C234.629 24.7367 234.641 24.865 234.664 24.935C234.898 25.5183 235.329 25.81 235.959 25.81C236.239 25.81 236.461 25.7983 236.624 25.775C237.768 25.6583 238.958 25.2617 240.194 24.585C241.431 23.885 242.248 23.1617 242.644 22.415C242.924 21.855 243.064 21.1783 243.064 20.385C243.064 19.1017 242.773 18.145 242.189 17.515C241.816 17.1417 241.349 16.8267 240.789 16.57ZM235.434 13.49C235.434 13.2333 235.679 13.105 236.169 13.105C236.729 13.105 237.114 13.2683 237.324 13.595C237.441 13.7817 237.604 13.9217 237.814 14.015C238.024 14.085 238.409 14.1433 238.969 14.19C239.856 14.26 240.638 14.47 241.314 14.82C241.828 15.0767 242.434 15.5433 243.134 16.22C243.858 16.8733 244.219 17.3167 244.219 17.55C244.219 17.7133 244.348 18.0517 244.604 18.565C244.861 19.0783 244.989 19.51 244.989 19.86C244.989 20.2333 244.884 20.84 244.674 21.68C244.511 22.4267 244.243 23.0333 243.869 23.5C243.519 23.9433 242.784 24.655 241.664 25.635C240.731 26.4283 239.891 26.9767 239.144 27.28C238.398 27.56 237.499 27.7 236.449 27.7C235.609 27.7 235.061 27.6767 234.804 27.63C234.548 27.56 234.221 27.3733 233.824 27.07C233.218 26.65 232.844 26.23 232.704 25.81C232.564 25.4367 232.494 25.0167 232.494 24.55C232.494 23.1967 233.171 21.1317 234.524 18.355C234.874 17.6317 235.049 17.2117 235.049 17.095C235.049 16.9783 234.968 16.78 234.804 16.5C234.594 16.15 234.489 15.8817 234.489 15.695C234.489 15.5083 234.653 15.2517 234.979 14.925C235.329 14.6217 235.481 14.365 235.434 14.155C235.388 13.945 235.388 13.7233 235.434 13.49Z" fill="#0E2F41"/>
</svg>
