<?xml version="1.0" encoding="UTF-8"?>
<svg id="Capa_2" data-name="Capa 2" xmlns="http://www.w3.org/2000/svg" viewBox="0 0 1335.81 332.04">
  <defs>
    <style>
      .cls-1 {
        fill: #000;
        stroke-width: 0px;
      }
    </style>
  </defs>
  <g id="Layer_0_Imagen" data-name="Layer 0 Imagen">
    <g>
      <path class="cls-1" d="M181.52,180.68c2.4,1.12,4.08.06,5.75-.5,24-8.03,47.99-16.07,73.1-20.03,3.32-.52,5.64-2.68,7.95-4.87,9.08-8.59,18.34-16.94,29.51-22.84,5.46-2.88,10.98-5.66,17.1-6.81,1.96-.37,4.79-1.47,5.64,1.33.76,2.51-2.03,3.04-3.71,3.89-11.81,5.88-23.14,12.49-32.88,21.53-.97.9-1.91,1.85-2.78,2.85-.28.32-.3.88-.47,1.47,3.41,1.85,7.78-1.01,10.76,2.18-.29,2.7-2.48,2.61-4.08,3.16-4.41,1.5-8.78,3.2-13.3,4.24-8.96,2.06-12.77,9.09-16.14,16.34-1.94,4.18-.69,8.48,2.03,12.22,2.69,3.7,6.26,6.4,9.99,8.93,10.38,7.03,21.5,12.61,33.25,17.01,7.48,2.8,14.89,5.81,21.89,9.71,6.18,3.44,11.68,7.69,15.59,13.69,6.19,9.5,4.65,17.44-4.43,24.2-10.13,7.54-21.56,12.42-33.44,16.23-12.05,3.86-24.37,6.79-36.96,8.3-5.09.61-10.39,1.74-15.42-1.06.96-2.77,3.05-2.55,4.7-2.81,19.11-3.02,37.65-8.26,56-14.27,6.95-2.27,12.96-5.99,18.54-10.51,5.1-4.14,5.85-10.1,2.13-15.55-3.31-4.86-8.15-7.82-13.39-10.06-9.03-3.86-18.17-7.45-27.24-11.21-10.51-4.36-20.33-9.93-29.29-16.95-5.06-3.97-9.1-8.76-11.68-14.68-2.64-6.05-3.03-12.17-.5-18.4.6-1.48,1.75-2.88,1.28-4.74-1.82-1.08-3.6-.11-5.25.36-20.18,5.72-40.31,11.56-60.49,17.27-2.87.81-4.25,2.25-4.01,5.27.16,1.98.19,3.99.07,5.98-.18,3.13.06,5.93,5.14,6.84-5.75,2.48-4.86,6.39-4.53,10.19.88,9.92,1.18,19.91,3.44,29.67,4.87,21.04,22.14,28.24,40.74,17.11,3.86-2.31,7.45-5.42,12.17-5.73,1.49,2.78-.04,4.45-1.12,5.96-8.52,12.02-20.13,17.7-34.87,15.8-13.74-1.77-23.37-9.14-27.82-22.5-4.09-12.27-4.7-25.09-5.58-37.85-.45-6.44-.34-6.57-6.63-5.44-19.65,3.53-39.28,7.24-59.2,8.96-3.24.28-3.69,2.08-3.64,4.7.36,19.15,1.52,38.19,7.52,56.59.15.47.35.94.44,1.43.46,2.65,2.93,6.17.01,7.73-3.45,1.85-5.48-2.11-7.33-4.44-4.34-5.45-6.25-12.06-7.98-18.66-3.61-13.71-5.09-27.75-6.06-41.85-.4-5.74-1.57-6.98-7.44-6.35-6.12.66-12.16,2.05-18.29,2.52-4.72.36-6.46,2.75-7.54,6.97-4.59,17.85-8.62,35.86-14.18,53.46-3.45,10.94-7.05,21.82-12.05,32.17-1.66,3.45-3.5,6.82-6.01,9.73-4.18,4.84-10.16,4.59-13.87-.63-3.62-5.11-5.75-10.93-6.36-17.08-.54-5.43-.2-10.95-.19-16.43,0-1.45,0-3.02,2.92-4.51,1.51,10.28,1.71,20.53,6.32,29.88,2.7-.95,3.03-3.27,3.83-5.1,5.36-12.2,8.99-25,12.9-37.7,4.29-13.98,8.75-27.9,13.81-41.62.74-2,1.32-4.06,2-6.14-2.23-2.33-5.18-1.7-7.59-2.6-4.19-1.56-7.94-3.51-9.72-7.92-.5-1.24-.94-2.63.41-3.63,1.14-.85,2.23-.19,3.2.49,4.61,3.23,9.85,2.45,14.98,2.43,3.08-.02,3.66-2.43,4.42-4.62,3.74-10.84,7.39-21.7,11.18-32.52,4.95-14.11,10.05-28.17,16.41-41.74,4.67-9.97,5.4-20.81,6.96-31.47.5-3.42.79-6.87,1.23-10.81,2.19,1.15,1.92,2.75,1.95,4.08.37,14.49-.46,28.74-5.28,42.69-7.71,22.3-14.6,44.86-20.91,67.6-.48,1.73-1.27,3.42-.87,5.85,4.82,1.47,9.98.94,15.03,1.1,11.84.38,11.82.3,11.73-11.65-.24-31.25,1.03-62.35,5.58-93.39,2.93-20.02,6.54-39.99,7.95-60.24.9-12.84.41-25.56-2.51-38.13-.44-1.88-.59-3.99-3.29-5.5-9.1,11.26-13.28,25.08-18.35,38.14-2.58-.69-2.27-1.8-1.98-2.72,4.11-12.98,8.32-25.94,14.82-37.97,1.67-3.09,3.25-7.03,7.83-6.7,4.77.34,7.25,3.79,8.84,7.81,4.4,11.17,4.99,23.01,5.48,34.78,1.13,27.3-1.77,54.42-4.35,81.54-2.73,28.77-5.93,57.51-5.65,86.48.02,1.96,0,3.92,0,6.36,7.67.34,14.61-1.56,21.63-2.24,13.74-1.34,27.44-3.2,41.19-4.41,4.48-.39,6.43-1.81,5.75-6.35-.38-2.58.5-5.31-1.15-8.32-12.37,1.99-24.55,6.55-38.24,6.73,1.6-3.8,4.08-4.21,6.12-5.06,9.07-3.8,18.55-6.45,27.97-9.19,3.75-1.09,5.29-2.83,5.44-6.93.79-22.73,4.04-45.36,2.82-68.17-.41-7.62-1.39-15.21-2.11-22.81-.34-3.61-1.88-5.06-5.9-4.61-11.46,1.3-22.63,3.86-33.76,6.7-1.73.44-3.4,1.35-5.84.84,1.66-3.2,4.66-4.25,7.37-5.42,15.19-6.56,30.98-10.92,47.31-13.85,39.5-7.07,78.75-15.28,116.94-27.86,4.09-1.35,8.38-2.16,12.61-3.01,1.55-.31,3.67-.57,4.12,1.63.37,1.8-1.4,2.52-2.75,3.07-8.49,3.43-17.03,6.72-25.51,10.17-33.66,13.72-68.43,22.95-104.74,26.05-1.29.11-2.7,0-4.03,1.74,11.24,30.77,5.83,63.22,6.86,94.96Z"/>
      <path class="cls-1" d="M1178.48,168.33c1.91-2.18,3.75-3.05,5.58-3.66,18.28-6.14,36.47-12.9,56.07-13.16,22.25-.3,43.76,3.26,63.71,13.75,8.95,4.71,16.78,10.76,22.91,18.89,11.19,14.82,12.05,32.13,2.35,47.98-7.49,12.25-18.64,20.39-31.38,26.13-27.87,12.56-56.91,15.34-86.81,8.75-6.68-1.47-11.26-5.52-14.08-11.54-1.76-3.75-3.07-7.71-4.68-11.53-2.12-5.02-4.11-6.2-9.35-4.44-14.12,4.75-26.98,12.13-39.52,19.97-8.49,5.31-17.55,9.49-26.38,14.11-8.17,4.27-15.45-1.46-14.46-10.92.73-6.94,2.36-13.71,4.48-20.39,8.01-25.32,16.29-50.57,21.71-76.62,1.58-7.59,1.29-8.1-6.38-7.72-30.9,1.56-59.59,9.74-85.08,27.91-21.71,15.47-43.16,31.19-60.7,51.54-2.96,3.44-5.24,7.28-7.06,11.4-2.01,4.57-.64,6.53,4.46,5.96,5.14-.57,10.11-1.96,14.95-3.8,25.41-9.64,48.55-23.18,70-39.82,15.18-11.78,28.48-25.52,42.33-38.7,2.76-2.62,5.27-5.84,9.23-6.58,1.37,1.69.62,2.72-.17,3.54-15.22,15.78-27.96,33.88-45.15,47.85-22.66,18.41-47.48,33-75.04,42.84-4.57,1.63-9.3,2.94-14.11,2.94-5.96,0-10.95,2.36-15.95,5.03-11.37,6.06-23.3,10.57-35.99,12.97-4.13.78-8.3.83-12.44.44-7.23-.69-12.02-5.98-12.42-13.24-.41-7.46,2.39-13.98,5.89-20.29,7.2-13,17.55-23.34,28.5-33.12,5.64-5.04,11.59-9.75,17.1-15.46-7.09,1.44-14.23,2.63-21.24,4.37-19.53,4.84-38.98,9.98-58.51,14.85-3.86.96-5.87,2.96-6.72,6.87-2.43,11.19-5.27,22.29-9.08,33.12-1.5,4.27-3.37,8.27-6.94,11.33-1.85,1.58-3.54,1.81-5.25.16-9.74-9.41-15.45-20.73-15.31-34.43.04-3.88,2.53-7.07,5.62-9.64,6.72-5.59,14.37-9.62,22.32-13.06,3.07-1.33,4.45-3.25,5.31-6.48,8-30.02,11.75-60.51,11.68-91.58-.07-29.24-.49-58.47-1.89-87.68-.13-2.65-.04-5.32.18-7.96.13-1.5.73-3.09,2.58-3.19,1.9-.11,2.53,1.37,2.76,2.93.62,4.27,1.27,8.53,1.74,12.82,2.73,25.28,3.9,50.66,3.92,76.07.03,31.48-2.89,62.65-11.31,93.13-.51,1.85-1.39,3.71-.81,6.06,4.08.14,7.77-1.53,11.57-2.44,16.81-4.01,33.26-9.53,50.46-11.94,9.43-1.32,18.92-1.37,28.4-1.41,3.71-.02,7.2-.36,10.68-1.83,3.84-1.61,7.94-2.45,12.18-2.29,1.95.07,3.83.41,4.39,2.52.64,2.45-1.17,3.68-3.05,4.48-1.66.7-3.47,1.4-5.24,1.46-5.59.18-10.21,2.45-14.63,5.65-14.31,10.35-28.09,21.35-40.79,33.61-8.04,7.76-14.27,16.65-15.97,28.07-.92,6.2,1.03,8.9,7.1,10.28,4.72,1.07,9.36.17,13.89-.55,11.36-1.79,22.37-5.06,32.99-9.56.72-.3,1.32-.87,2.38-1.59-6.69-6.98-3.77-13.88-.23-20.73,3.62-7.02,8.56-13.1,14.22-18.52,21.33-20.43,44.32-38.77,69.84-53.76,24.72-14.52,51.51-20.16,80.03-17.61,3.13.28,3.97-.96,4.54-3.71,3.39-16.44,5.28-33.1,7.82-49.66,2.67-17.45,2.44-35.09,3.95-52.61.21-2.4-.13-5.03,2.65-6.86,2.6,4.26,2.11,9.05,2.64,13.48,2.45,20.69,2.1,41.34-1.08,61.98-2.07,13.45-3.5,26.99-6.38,40.31-.58,2.69.33,4.75,1.92,6.88,7.07,9.45,9.91,20.98,15.24,31.29.61,1.17.53,2.27-.69,3.03-1.22.75-2.28.17-3.17-.62-2.52-2.22-4.36-5.02-6.15-7.81-3.21-5-6.3-10.07-9.4-15.06-1.42.52-1.6,1.53-1.8,2.48-4.81,23.15-12.74,45.36-20.44,67.64-2.34,6.75-4.56,13.53-5.84,20.58-.97,5.31.81,6.82,5.94,4.83,4.34-1.69,8.5-3.85,12.24-6.62,11.92-8.84,24.91-16.01,37.4-23.94,5.78-3.67,12.09-6.38,19.13-6.57,7.4-.2,11.99,2.66,14.73,9.57,1.65,4.15,2.67,8.55,4.02,12.82.67,2.1,1.5,3.82,4.21,4.25,27.98,4.42,55.4,3.65,81.75-8.15,9.54-4.27,18.12-9.84,25.02-17.77,12.33-14.18,12.11-31.17-.78-44.89-11.71-12.47-26.7-19.07-43.03-22.78-26.78-6.07-53.46-5.53-79.92,2.18-4.28,1.25-8.54,2.71-13.88,3.21ZM856,224.75c-1.7.55-2.52.7-3.22,1.06-3.67,1.92-7.38,3.78-10.95,5.87-8.81,5.15-8.99,5.38-6.62,15.22,1.69,7.02,4.41,13.66,9.23,19.57,5.63-13.24,9.1-26.81,11.56-41.72Z"/>
      <path class="cls-1" d="M562.26,192.44c16.86-.88,28.13,7.62,37.54,19.7,9.93,12.75,8.12,27.46,6.97,42.04,2.25.27,2.51-1.37,3.17-2.32,8.52-12.19,18.37-23.18,29.54-33,7.94-6.98,17-11.56,27.51-13.15,8.42-1.27,15.03,1.55,19.65,8.77.54.84,1.2,1.66,1.49,2.58,4.75,15.27,17.44,19.02,31.05,20.72,22.11,2.76,43.17-2.03,62.76-11.89,12.21-6.15,21.05-15.95,23.07-30.59,1.38-9.97-1.29-16.68-10.21-21.6-8.68-4.79-17.94-7.68-27.89-8.72-18.58-1.94-37.13-3.09-55.79-1.31-18.95,1.8-37.31,6.58-55.82,10.63-8.78,1.92-17.42,4.38-26.02,6.98-1.62.49-3.31,1.71-5.38.58-.29-3.08,2.36-3.67,4.2-4.7,9.81-5.53,20.69-8.18,31.35-11.41,27.06-8.21,54.63-13.63,83.02-12.43,18.37.78,37,.9,53.92,10.18,9.45,5.18,16.65,11.86,17.52,23.12.95,12.18-2.75,23-11.43,31.78-10.25,10.36-22.36,17.6-36.59,21.35-14.68,3.86-29.31,7.54-44.71,5.92-7.68-.81-15.01-2.77-22.18-5.57-7.92-3.1-12.8-9.17-16.99-16.16-6.95-11.6-10.36-12.69-23.28-8.25-9.77,3.36-17.12,10.19-24.27,17.12-6.8,6.59-13.02,13.77-19.53,20.67-1.71,1.81-3.33,3.77-5.3,5.27-4.12,3.14-6.75,1.92-7.22-3.2-.82-8.92-.85-17.91-2.9-26.71-3.78-16.18-18.85-29.62-34.89-31.49-3.53-.41-5.11.61-6.33,3.76-5.3,13.62-10.8,27.17-14.95,41.21-.46,1.54-.58,3.25-2.46,4.41-2.41-2.98-1.19-6.09-.61-8.95,2.51-12.23,6.86-23.93,10.89-35.71,6.51-19.01,13.54-37.87,18.06-57.47,4.38-19.01,5.07-38.48,6.29-57.85.66-10.44.98-20.9,2.4-31.27.27-2.01.09-4.39,2.23-5.86,2.76.5,2.61,2.89,2.75,4.65,2.43,30.41,2.26,60.75-3.69,90.8-2.85,14.41-8.79,27.83-14.59,41.26-.78,1.79-1.42,3.65-2.38,6.12Z"/>
      <path class="cls-1" d="M439.52,218.83c2.26,3.8,2.52,7.71,2.62,11.65.35,13.28,1.03,26.53,3.11,39.68.65,4.13,1.84,8.11,4.01,11.71,2.83,4.68,6.93,6.08,11.93,3.92,5.37-2.31,10.58-5.09,14.69-9.27,18.96-19.31,31.02-41.72,30.81-69.53-.04-5.87-1.09-11.55-2.84-17.11-5.15-16.4-20.27-24.32-36.94-19.51-11.97,3.46-21.81,9.71-27.93,21.28-1.03-4.4-.07-7.62,3.15-11.36,12.43-14.44,38.11-18.66,54.56-9.01,5.08,2.98,8.45,7.39,10.96,12.58,10.32,21.39,8.01,42.78-1.29,63.53-7.99,17.84-19.21,33.42-37.41,42.63-12.86,6.51-22.02,2.92-27.13-10.59-3.49-9.23-2.94-18.97-3.71-28.52-.81-10.12.16-20.24.79-30.35.04-.59.41-1.16.63-1.73Z"/>
      <path class="cls-1" d="M396.45,246.36c-3.06,8.88-7.14,17.15-15.32,22.34-5.63,3.57-11.4,1.36-14.19-5.13-3.48-8.1-2.86-16.65-1.66-25.02,3.27-22.85,10.98-44.39,20.55-65.27,5.99-13.07,10.79-26.4,11.91-40.85.11-1.39-.14-3.1,1.83-3.67,2.22.66,1.65,2.62,1.9,4.12,2.05,12.74-.86,24.75-5.73,36.38-5.77,13.76-12.63,27.08-17.1,41.37-4.32,13.8-8.4,27.66-7.34,42.38.29,4.07.04,9.16,4.68,10.62,4.45,1.4,6.98-2.97,9.57-5.89,3.47-3.91,6.06-8.62,10.9-11.4Z"/>
    </g>
  </g>
</svg>