<svg width="162" height="40" viewBox="0 0 162 40" fill="none" xmlns="http://www.w3.org/2000/svg">
<path d="M22.3128 25.1206C19.2897 25.7695 15.451 26.0945 12.1053 26.2492C12.0859 22.3138 12.295 16.9285 13.1263 11.2351C13.9128 5.83895 13.1033 -0.15289 11.4939 0.00297776C9.88445 0.158845 8.17111 7.0581 9.07249 5.53084C9.07249 5.53084 10.897 0.290547 11.3972 1.25958C11.8974 2.22862 12.1681 5.35685 11.8286 7.41817C11.5881 8.87414 10.0621 18.4123 10.3182 26.3192C9.01208 26.3603 7.83521 26.3772 6.88188 26.3796C7.43528 24.4549 8.15299 22.0697 8.15299 22.0697C8.15299 22.0697 9.54492 18.2685 10.0222 16.1226C10.4995 13.9767 10.3472 12.3262 10.2651 11.8682C10.1841 11.4091 10.0802 11.7027 10.0802 11.7027C10.0802 11.7027 10.0053 13.1116 9.72254 14.5216C9.44101 15.9317 8.79338 17.4662 8.79338 17.4662C8.38619 18.4981 6.9858 22.3102 5.56245 26.376C5.10693 26.3712 4.77103 26.3615 4.58616 26.3531C3.69324 26.312 3.30539 26.1742 3.14106 26.0812C3.07944 26.0462 3.00332 26.0884 3.00332 26.1585C3.0009 26.3833 3.09998 26.7977 3.7307 27.2037C3.95061 27.3451 4.44721 27.4417 5.17338 27.4925C4.33001 29.9199 3.50959 32.3558 2.91511 34.2709C1.49297 38.8478 1.18607 38.6231 1.18607 38.6231C0.730551 38.5772 0.372901 35.0321 0.372901 35.0321C0.0370005 35.0768 0.0527081 35.3342 0.0527081 35.3342C-0.126117 36.6887 0.145745 39.1995 0.93475 39.777C1.72255 40.3534 2.56834 39.9003 3.71862 37.3774C4.8689 34.8557 5.96964 29.8281 6.3442 28.331C6.39737 28.1208 6.46986 27.8477 6.55807 27.5311C7.60564 27.5287 8.89487 27.4671 10.3641 27.3438C10.5188 30.222 10.9381 32.8161 11.779 34.6285C11.779 34.6285 12.5161 36.0193 12.9873 35.6483C13.4585 35.2774 12.6164 34.1863 12.3662 32.1395C12.272 31.3662 12.1512 29.6033 12.1161 27.1759C13.8488 26.9886 15.7651 26.7264 17.7866 26.3821C25.0145 25.1508 22.3152 25.1218 22.3152 25.1218L22.3128 25.1206Z" fill="#454545"/>
<path d="M37.3593 5.17923C33.0784 6.60016 28.4374 7.66465 22.6123 8.73398C16.7872 9.80209 15.3844 10.7965 15.3844 10.7965C14.6642 11.3004 14.6727 11.4188 15.8749 11.0925C16.6845 10.8738 18.8437 10.5561 20.1679 10.3712C20.3709 10.8895 20.6669 12.412 20.6343 16.8935C20.6222 18.6128 20.5099 20.5497 20.4325 22.4854C18.3688 23.1511 16.5757 23.7287 16.5757 23.7287C14.0504 24.9623 17.32 24.3401 20.3939 23.5656C20.2332 28.8759 20.5389 33.8661 24.1697 33.958C24.1697 33.958 26.753 34.846 28.8313 31.829C28.8313 31.829 29.4088 30.6316 27.0442 32.2688C24.6784 33.906 22.193 31.5172 22.0782 27.5311C22.0359 26.0667 22.0275 24.5866 22.0287 23.1342C22.866 22.9022 23.5886 22.6859 24.0344 22.5289C26.2431 21.7495 32.4694 20.1014 34.0969 19.8006C35.7245 19.4997 35.2255 19.1976 34.9222 19.0249C34.6189 18.8521 29.5067 19.5275 26.3241 20.5787C25.7284 20.7757 23.9257 21.3593 22.0311 21.9706C22.048 16.8101 22.1096 12.1848 21.1043 10.2455C21.1998 10.2334 21.2554 10.2262 21.2554 10.2262C27.1264 9.65348 31.9692 7.75286 35.4985 6.5035C39.0279 5.25414 37.3593 5.18165 37.3593 5.18165V5.17923Z" fill="#454545"/>
<path d="M38.291 15.8121C38.291 15.8121 32.8392 18.8787 31.4147 21.3858C31.1078 21.9247 31.1102 22.5881 31.4195 23.1258C31.8666 23.9015 32.8453 25.111 34.8691 25.9459C39.3095 27.7776 40.8755 28.3419 41.5895 30.17C41.7321 30.5337 42.3338 32.9055 35.6279 34.6817C35.6279 34.6817 31.1972 35.8731 30.5664 35.3946C29.9357 34.9161 30.5471 34.8678 31.8653 34.6853C33.1848 34.5029 40.6157 32.5829 40.281 30.4999C40.0538 29.0838 34.2674 27.0659 34.2674 27.0659C34.2674 27.0659 27.2715 24.0863 30.7743 20.0604C34.2771 16.0344 40.4006 13.9417 38.2897 15.8121H38.291Z" fill="#454545"/>
<path d="M48.5105 15.4012C48.4029 15.3348 48.1806 15.2683 47.9112 15.5789L47.8483 15.6526L47.852 15.748C47.852 15.7661 47.9039 17.6643 45.9332 21.9078C44.0181 26.0305 43.0442 31.4737 44.708 32.6941C44.9159 32.8463 45.1454 32.9237 45.3823 32.9237C45.4825 32.9237 45.5828 32.9104 45.6843 32.8826C46.947 32.5382 48.0139 30.1362 48.1311 29.8643L48.1432 29.8305C48.2108 29.5767 48.1552 29.3883 47.9909 29.3121C47.7553 29.2034 47.5173 29.2565 46.3791 30.9095C45.9042 31.5982 45.5695 31.771 45.4149 31.7021C45.0222 31.5269 44.7745 29.9404 45.3569 27.5323C45.9864 24.9261 47.0521 22.6364 47.7565 21.1212C47.9619 20.679 48.1395 20.2972 48.2579 20.0096C48.4694 19.4925 48.6748 18.4811 48.7703 17.4928C48.9455 15.6683 48.6301 15.4737 48.5129 15.4012H48.5105Z" fill="#454545"/>
<path d="M61.6832 22.5301C61.6723 22.5023 60.6139 19.7414 57.5243 19.8864C55.2842 19.9915 53.531 21.0826 52.957 22.106C52.7456 22.4818 52.7118 22.8382 52.8616 23.1101L53.0102 23.3819L53.1745 23.1197C53.1914 23.0931 54.8407 20.5038 57.5267 20.5993C60.1765 20.6911 60.783 23.2164 60.806 23.3191C60.8096 23.3372 61.16 25.1919 60.696 27.4719C60.0762 30.518 58.375 32.8403 55.6406 34.3748L55.6177 34.3905C55.6177 34.3905 55.3277 34.6128 54.9833 34.4449C54.4481 34.1827 53.5539 32.9068 53.5721 27.2943L53.5696 27.2641C53.415 26.3446 53.2591 26.2757 53.1189 26.2866C52.9148 26.2999 52.8362 26.4775 52.8012 27.4478L52.7891 27.7837C52.7081 29.903 52.5849 33.1061 53.8379 34.9185C54.1399 35.3559 54.5459 35.6085 55.0425 35.6665C55.1174 35.6749 55.1924 35.6798 55.2685 35.6798C56.6302 35.6798 58.1297 34.3446 58.1901 34.2902C58.2517 34.2395 59.7065 33.03 60.8773 30.9723C61.9623 29.0669 62.9833 26.0558 61.6832 22.5349V22.5301Z" fill="#454545"/>
<path d="M98.3775 22.0951C98.2072 21.2735 97.7335 20.5666 97.0424 20.1039C96.2655 19.5843 94.9569 18.8605 92.5681 18.5766C87.1104 17.9302 80.338 19.0515 75.7163 21.3653C75.1931 21.6275 75.1521 21.8329 75.2113 21.9598C75.3478 22.2522 76.0341 22.1156 76.6539 21.8498C77.5299 21.4741 81.0134 20.7624 83.5556 20.2428C89.2345 19.0829 93.7148 20.2295 93.7668 20.2428C93.7921 20.2476 96.3078 20.743 97.0315 22.3597C97.3988 23.1813 97.2466 24.1637 96.576 25.2801C94.8905 28.0857 88.141 28.8651 85.8586 28.4277C84.9318 28.2501 84.2093 27.8103 83.7103 27.1215C83.3369 26.6056 83.2354 26.1344 83.2342 26.1295L83.2245 26.1005C83.1968 26.0438 82.5274 24.7122 81.1101 24.7026C79.323 24.6881 77.5771 25.697 75.6257 27.8719C74.8101 28.7805 74.3026 29.4583 73.8544 30.0576C73.748 30.199 73.6465 30.3355 73.545 30.4685C73.5088 30.5156 73.481 30.5458 73.4605 30.5651C74.0054 26.5029 72.3476 25.117 71.137 24.1045C70.0133 23.1656 68.747 23.0895 68.0945 23.127C68.5827 21.9211 68.9693 21.0064 69.2412 20.4071C70.1945 18.3144 70.6802 13.5272 70.7273 9.96522C70.7817 5.874 70.3467 5.80271 70.2042 5.77854C70.0012 5.74471 69.8332 5.98153 69.6447 6.56634C69.594 6.72583 69.6 8.04285 69.6024 8.10206C69.6532 9.64019 69.6133 12.8373 68.7699 16.9636C68.2045 19.7329 67.2306 22.4177 66.4488 24.5769C65.7698 26.4497 65.1838 28.0664 65.0762 29.1442C65.0158 29.7459 65.0484 29.9501 65.2067 29.9839C65.3167 30.0069 65.545 30.0552 66.3763 27.4756C66.3824 27.4586 67.0071 25.8335 67.7091 24.0779C68.6902 24.0042 69.5215 24.4077 69.5312 24.4126C72.5398 25.8649 72.5857 28.3818 72.6195 30.2183C72.6352 31.0448 72.7838 31.4786 73.0895 31.5825C73.1354 31.5982 73.1826 31.6054 73.2309 31.6054C73.6369 31.6054 74.1468 31.0798 74.7763 30.2969C75.9109 28.8844 78.9642 26.1452 80.3295 25.9604C81.5885 25.79 81.9559 26.6322 82.1758 27.136C82.2011 27.194 82.2241 27.246 82.2458 27.2919C82.9152 28.685 84.7421 29.5659 87.5321 29.8377C90.5455 30.1326 95.3629 28.6415 97.2986 26.2081C98.6796 24.4718 98.5104 22.7536 98.3739 22.0951H98.3775Z" fill="#454545"/>
<path d="M119.417 22.8756C119.189 22.1712 118.068 22.5192 117.328 22.75L117.265 22.7693C116.606 22.9735 115.653 22.9868 115.643 22.9868C115.63 22.9868 114.296 23.0134 112.568 23.156C110.832 23.2997 105.589 24.8149 105.359 24.8826L105.348 24.8862C107.959 13.4523 106.004 2.37845 105.983 2.26728L105.98 2.24433L105.968 2.22499C105.835 2.00871 105.632 1.73081 105.406 1.80572C104.949 1.95796 105.061 3.76675 105.13 4.53643C105.698 12.1051 105.276 17.3997 104.823 20.5074C104.379 23.5571 103.818 25.1557 103.711 25.442C103.611 25.4819 103.373 25.5822 103.065 25.7223L103.054 25.7272C101.951 26.2334 100.546 26.9898 100.118 27.7232C99.3571 29.0294 100.304 30.7524 101.333 32.2652C101.643 32.7219 101.956 32.937 102.262 32.9019C102.717 32.8512 102.953 32.2664 102.961 32.2458C103.724 30.4962 104.381 28.6029 104.915 26.6189C105.456 26.4425 106.162 26.2781 107.047 26.0715C108.256 25.7888 109.762 25.4372 111.497 24.8983C112.825 24.4863 113.914 24.3147 114.47 24.247C111.019 27.0539 109.868 28.8457 109.78 28.9871C109.718 29.0656 109.136 29.8172 108.744 30.7415C108.193 32.0428 108.302 33.0493 109.06 33.651C109.542 34.0341 110.171 34.1742 110.837 34.1742C112.628 34.1742 114.677 33.1581 114.795 33.0989L117.344 31.7722V31.3312L116.46 31.4749L114.641 32.2349C114.609 32.2482 111.434 33.5338 110.212 32.8318C109.956 32.6844 109.811 32.4621 109.768 32.1528C109.586 30.8466 110.611 28.453 116.519 24.4706C117.543 23.7806 117.855 23.7758 117.899 23.7806L117.919 23.7903L117.952 23.7867C118.068 23.7758 119.091 23.6695 119.366 23.2514C119.441 23.1378 119.458 23.0073 119.416 22.8756H119.417ZM103.332 27.2979C103.132 28.1558 102.419 31.1403 102.013 31.9897C101.74 31.6622 101.006 30.6569 100.912 29.2324C100.851 28.2948 102.041 27.8175 102.998 27.4345C103.114 27.3886 103.226 27.3426 103.332 27.2979Z" fill="#454545"/>
<path d="M161.403 23.945C160.883 21.8172 158.845 20.0712 155.665 19.0273C155.505 18.9681 149.528 16.8186 142.621 19.9818C142.319 20.1111 142.222 20.2041 142.262 20.3214C142.314 20.47 142.357 20.5993 146.238 19.5746C149.623 18.6817 154.458 19.5009 157.486 21.4813C158.925 22.4225 159.777 23.5076 159.95 24.6216C160.142 25.8601 159.579 27.1819 158.363 28.3419C157.174 29.4777 155.432 30.3645 153.459 30.8406C151.219 31.3807 148.703 31.3952 146.181 30.8829C146.043 30.8551 145.922 30.8007 145.875 30.7439C145.806 30.663 145.745 30.4576 145.675 30.2196L145.658 30.1603C145.633 30.0721 145.606 29.9598 145.577 29.8293C145.399 29.0487 145.063 27.594 143.657 27.664C142.119 27.7402 141.426 28.1425 139.256 29.5248C138.833 29.7942 138.363 30.1156 137.907 30.4274C136.584 31.3312 134.94 32.4585 134.52 32.1915C134.4 32.1153 134.41 31.8821 134.441 31.6997C134.749 29.845 136.692 24.3075 136.712 24.2495C136.717 24.235 137.16 22.8793 137.667 20.8167C138.059 21.3871 138.435 21.9984 138.745 22.5023C138.972 22.872 139.151 23.1644 139.267 23.3251C139.468 23.6054 139.671 23.7335 139.866 23.7069C140.005 23.6876 140.127 23.5837 140.181 23.4363C140.227 23.3118 140.215 23.1874 140.15 23.1137C140.07 23.0243 139.815 22.4177 139.659 22.019C139.131 20.5316 138.464 19.4768 138.093 18.956C138.68 16.2096 139.34 12.1691 139.182 8.40775C139.025 4.6778 138.749 4.64518 138.584 4.62705C138.37 4.60168 138.259 4.92912 138.157 5.29644C138.139 5.36169 138.128 5.42814 138.125 5.49581C138.121 5.56347 137.681 12.5932 136.648 18.2552C134.944 17.8589 132.155 17.7574 128.357 19.3982C126.035 20.4011 124.411 21.6009 124.396 21.6106C124.019 21.8764 115.164 28.1546 115.915 30.8479C116.043 31.3082 116.317 31.6284 116.727 31.8012C118.514 32.5491 122.619 30.2763 125.334 28.7732L125.591 28.6307C128.717 26.9016 134.501 20.7008 134.38 20.099C134.366 20.0265 134.32 19.9734 134.256 19.9516C133.998 19.8682 133.451 20.3576 131.598 22.0709C130.705 22.895 129.594 23.922 128.269 25.0916C124.65 28.2827 119.736 30.1313 117.643 30.6618C117.503 30.6968 117.259 30.7391 117.2 30.6147C116.93 30.0407 119.048 27.1143 124.231 23.3251C130.218 18.9463 135.972 19.1892 136.03 19.1928H136.037H136.044C136.113 19.188 136.239 19.2158 136.434 19.3644C136.235 20.3359 136.027 21.1901 135.814 21.9042C135.265 23.7565 134.762 25.3284 134.358 26.5923C133.115 30.4842 132.6 32.0948 133.45 32.9817C133.644 33.1847 133.919 33.268 134.241 33.268C135.798 33.268 138.47 31.307 138.598 31.2128C138.636 31.1898 142.297 28.9726 143.273 28.9726H143.279C143.994 28.9787 144.278 30.3694 144.283 30.3923C144.303 30.4624 144.764 32.1081 146.297 32.3812C147.604 32.6144 149.625 32.8621 151.834 32.7195C155.077 32.5104 157.567 31.539 159.237 29.8317C161.096 27.9287 161.866 25.8383 161.403 23.9462V23.945Z" fill="#454545"/>
</svg>
